<svg width="92" height="36" viewBox="0 0 92 36" fill="none" xmlns="http://www.w3.org/2000/svg">
<path d="M1.48535 18.6003C1.48535 17.9979 1.60042 17.4327 1.83055 16.9048C2.06068 16.3768 2.37203 15.9166 2.7646 15.524C3.16395 15.1247 3.62759 14.8099 4.15553 14.5798C4.68348 14.3497 5.24865 14.2346 5.85105 14.2346H12.5316V17.1484H5.85105C5.64799 17.1484 5.45848 17.1857 5.28249 17.2601C5.10651 17.3346 4.95084 17.4395 4.81547 17.5749C4.68686 17.7035 4.58534 17.8558 4.51088 18.0317C4.43643 18.2077 4.3992 18.3972 4.3992 18.6003C4.3992 18.8033 4.43643 18.9962 4.51088 19.179C4.58534 19.355 4.68686 19.5107 4.81547 19.646C4.95084 19.7746 5.10651 19.8762 5.28249 19.9506C5.45848 20.0251 5.64799 20.0623 5.85105 20.0623H8.7649C9.3673 20.0623 9.93247 20.1774 10.4604 20.4075C10.9951 20.6308 11.4588 20.9422 11.8513 21.3415C12.2507 21.7341 12.562 22.1978 12.7854 22.7325C13.0155 23.2604 13.1306 23.8256 13.1306 24.428C13.1306 25.0304 13.0155 25.5956 12.7854 26.1235C12.562 26.6514 12.2507 27.1151 11.8513 27.5144C11.4588 27.907 10.9951 28.2184 10.4604 28.4485C9.93247 28.6786 9.3673 28.7937 8.7649 28.7937H2.29757V25.8798H8.7649C8.96795 25.8798 9.15747 25.8426 9.33346 25.7682C9.50944 25.6937 9.66173 25.5922 9.79033 25.4636C9.9257 25.3282 10.0306 25.1725 10.1051 24.9965C10.1795 24.8206 10.2167 24.631 10.2167 24.428C10.2167 24.2249 10.1795 24.0354 10.1051 23.8594C10.0306 23.6834 9.9257 23.5312 9.79033 23.4026C9.66173 23.2672 9.50944 23.1623 9.33346 23.0878C9.15747 23.0134 8.96795 22.9761 8.7649 22.9761H5.85105C5.24865 22.9761 4.68348 22.8611 4.15553 22.6309C3.62759 22.4008 3.16395 22.0895 2.7646 21.6969C2.37203 21.2975 2.06068 20.8339 1.83055 20.306C1.60042 19.7712 1.48535 19.2027 1.48535 18.6003Z" fill="#0FDFC8"/>
<path d="M20.0243 28.7937C19.3543 28.7937 18.7248 28.6685 18.1359 28.418C17.5471 28.1608 17.0293 27.8122 16.5825 27.3723C16.1426 26.9256 15.794 26.4078 15.5368 25.8189C15.2864 25.2301 15.1612 24.6006 15.1612 23.9305V20.7019H13.8108V17.9404H15.1612V13.595H17.9227V17.9404H22.126V20.7019H17.9227V23.9305C17.9227 24.2215 17.9769 24.4957 18.0852 24.7529C18.1935 25.0033 18.3424 25.2233 18.5319 25.4128C18.7214 25.6023 18.9448 25.7546 19.202 25.8697C19.4592 25.978 19.7333 26.0321 20.0243 26.0321H22.126V28.7937H20.0243Z" fill="#0FDFC8"/>
<path d="M34.2179 28.7937H33.5479L32.4717 27.3012C32.2077 27.5381 31.9268 27.7615 31.629 27.9713C31.3379 28.1744 31.03 28.3537 30.7051 28.5094C30.3802 28.6583 30.0451 28.7768 29.6999 28.8648C29.3615 28.9527 29.0163 28.9967 28.6644 28.9967C27.8995 28.9967 27.1787 28.8681 26.5018 28.6109C25.8317 28.3537 25.2429 27.9815 24.7352 27.4941C24.2344 27 23.8384 26.3976 23.5474 25.6869C23.2563 24.9762 23.1108 24.1674 23.1108 23.2604C23.1108 22.4143 23.2563 21.6394 23.5474 20.9354C23.8384 20.2247 24.2344 19.6156 24.7352 19.1079C25.2429 18.6003 25.8317 18.2077 26.5018 17.9302C27.1787 17.6459 27.8995 17.5038 28.6644 17.5038C29.0163 17.5038 29.3649 17.5478 29.7101 17.6358C30.0553 17.7238 30.3903 17.8456 30.7152 18.0013C31.0401 18.1569 31.3481 18.3397 31.6391 18.5495C31.9369 18.7593 32.2145 18.9861 32.4717 19.2298L33.5479 17.9404H34.2179V28.7937ZM31.4259 23.2604C31.4259 22.8814 31.3515 22.5159 31.2026 22.1639C31.0604 21.8052 30.8641 21.4904 30.6137 21.2197C30.3633 20.9422 30.0688 20.7222 29.7304 20.5598C29.3987 20.3906 29.0434 20.306 28.6644 20.306C28.2853 20.306 27.9266 20.3703 27.5882 20.4989C27.2565 20.6275 26.9655 20.817 26.715 21.0674C26.4714 21.3179 26.2785 21.6292 26.1363 22.0015C25.9942 22.367 25.9231 22.7866 25.9231 23.2604C25.9231 23.7342 25.9942 24.1572 26.1363 24.5295C26.2785 24.895 26.4714 25.203 26.715 25.4534C26.9655 25.7039 27.2565 25.8934 27.5882 26.022C27.9266 26.1506 28.2853 26.2149 28.6644 26.2149C29.0434 26.2149 29.3987 26.1337 29.7304 25.9712C30.0688 25.802 30.3633 25.582 30.6137 25.3113C30.8641 25.0338 31.0604 24.719 31.2026 24.3671C31.3515 24.0083 31.4259 23.6395 31.4259 23.2604Z" fill="#0FDFC8"/>
<path d="M39.1116 28.7937H36.3399V17.9201H37.0099L37.9237 19.2095C38.3704 18.8033 38.8781 18.492 39.4466 18.2754C40.0152 18.052 40.604 17.9404 41.2132 17.9404H43.66V20.7019H41.2132C40.9222 20.7019 40.648 20.7561 40.3908 20.8644C40.1336 20.9727 39.9103 21.1216 39.7207 21.3111C39.5312 21.5006 39.3823 21.724 39.274 21.9812C39.1657 22.2384 39.1116 22.5125 39.1116 22.8035V28.7937Z" fill="#0FDFC8"/>
<path d="M48.1577 28.7937H45.2439V14.2346H55.4373V17.1484H48.1577V20.0623H52.5234V22.9761H48.1577V28.7937Z" fill="#0FDFC8"/>
<path d="M59.9146 14.9656C59.9146 15.2228 59.8639 15.4631 59.7623 15.6864C59.6676 15.9098 59.5356 16.1061 59.3664 16.2753C59.1972 16.4377 58.9975 16.5697 58.7674 16.6713C58.544 16.766 58.3037 16.8134 58.0465 16.8134C57.7893 16.8134 57.5457 16.766 57.3155 16.6713C57.0922 16.5697 56.8959 16.4377 56.7267 16.2753C56.5642 16.1061 56.4322 15.9098 56.3307 15.6864C56.2359 15.4631 56.1886 15.2228 56.1886 14.9656C56.1886 14.7152 56.2359 14.4783 56.3307 14.2549C56.4322 14.0248 56.5642 13.8285 56.7267 13.666C56.8959 13.4968 57.0922 13.3648 57.3155 13.2701C57.5457 13.1685 57.7893 13.1178 58.0465 13.1178C58.3037 13.1178 58.544 13.1685 58.7674 13.2701C58.9975 13.3648 59.1972 13.4968 59.3664 13.666C59.5356 13.8285 59.6676 14.0248 59.7623 14.2549C59.8639 14.4783 59.9146 14.7152 59.9146 14.9656ZM59.4375 28.7937H56.6454V17.9201H59.4375V28.7937Z" fill="#0FDFC8"/>
<path d="M64.3514 28.7937H61.5594V13.595H64.3514V28.7937Z" fill="#0FDFC8"/>
<path d="M80.3014 28.7937H77.5399V21.8898C77.5399 21.7003 77.5026 21.5209 77.4282 21.3517C77.3605 21.1825 77.2624 21.0336 77.1338 20.905C77.0052 20.7764 76.8562 20.6782 76.687 20.6105C76.5178 20.5361 76.3385 20.4989 76.1489 20.4989C75.9594 20.4989 75.7801 20.5361 75.6108 20.6105C75.4484 20.6782 75.3029 20.7764 75.1743 20.905C75.0524 21.0336 74.9543 21.1825 74.8798 21.3517C74.8122 21.5209 74.7783 21.7003 74.7783 21.8898V28.7937H72.0066V21.8898C72.0066 21.7003 71.9694 21.5209 71.8949 21.3517C71.8272 21.1825 71.7291 21.0336 71.6005 20.905C71.4719 20.7764 71.323 20.6782 71.1538 20.6105C70.9846 20.5361 70.8052 20.4989 70.6157 20.4989C70.4262 20.4989 70.2468 20.5361 70.0776 20.6105C69.9151 20.6782 69.7696 20.7764 69.641 20.905C69.5192 21.0336 69.421 21.1825 69.3466 21.3517C69.2789 21.5209 69.245 21.7003 69.245 21.8898V28.7937H66.4733V17.9201H67.1434L67.8947 18.7526C68.2805 18.4277 68.7036 18.1773 69.1638 18.0013C69.6309 17.8185 70.1148 17.7271 70.6157 17.7271C71.1233 17.7271 71.6174 17.8219 72.098 18.0114C72.5853 18.2009 73.0117 18.5292 73.3772 18.9962C73.5464 18.7661 73.7393 18.5698 73.9559 18.4074C74.1725 18.2449 74.3993 18.113 74.6362 18.0114C74.8798 17.9099 75.1303 17.8388 75.3875 17.7982C75.6447 17.7508 75.8985 17.7271 76.1489 17.7271C76.7243 17.7271 77.2624 17.8354 77.7632 18.052C78.2709 18.2686 78.7108 18.5664 79.0831 18.9455C79.4621 19.3178 79.7599 19.7577 79.9765 20.2653C80.1931 20.773 80.3014 21.3145 80.3014 21.8898V28.7937Z" fill="#0FDFC8"/>
<path d="M88.3018 28.7937H81.9665V26.0321H88.3018C88.4913 26.0321 88.6538 25.9644 88.7892 25.8291C88.9245 25.6937 88.9922 25.5313 88.9922 25.3417C88.9922 25.1454 88.9245 25.0168 88.7892 24.9559C88.6538 24.895 88.4913 24.8646 88.3018 24.8646H85.4184C84.9379 24.8646 84.4878 24.7732 84.0681 24.5904C83.6485 24.4077 83.283 24.1606 82.9716 23.8493C82.6603 23.5312 82.4132 23.1623 82.2305 22.7426C82.0545 22.323 81.9665 21.8729 81.9665 21.3923C81.9665 20.9117 82.0545 20.4616 82.2305 20.042C82.4132 19.6223 82.6603 19.2568 82.9716 18.9455C83.283 18.6341 83.6485 18.3905 84.0681 18.2145C84.4878 18.0317 84.9379 17.9404 85.4184 17.9404H91.0329V20.7019H85.4184C85.2289 20.7019 85.0665 20.7696 84.9311 20.905C84.7957 21.0403 84.728 21.2028 84.728 21.3923C84.728 21.5886 84.7957 21.7578 84.9311 21.8999C85.0665 22.0353 85.2289 22.103 85.4184 22.103H88.3018C88.7756 22.103 89.2223 22.1842 89.642 22.3467C90.0616 22.5023 90.4271 22.7223 90.7385 23.0066C91.0498 23.2909 91.2969 23.6327 91.4796 24.032C91.6624 24.4314 91.7538 24.8679 91.7538 25.3417C91.7538 25.8223 91.6624 26.2724 91.4796 26.6921C91.2969 27.1049 91.0498 27.4704 90.7385 27.7886C90.4271 28.0999 90.0616 28.347 89.642 28.5297C89.2223 28.7057 88.7756 28.7937 88.3018 28.7937Z" fill="#0FDFC8"/>
<path d="M12.5316 11.2575V14.2346L8.7297 14.2348L11.7587 10.9552C12.0339 10.6573 12.5316 10.852 12.5316 11.2575Z" fill="#0FDFC8"/>
<path d="M28.0184 3.19053C27.7362 2.85544 27.2882 2.70964 26.8628 2.81441C26.4374 2.91918 26.1083 3.25636 26.014 3.6842L25.4817 6.09787L23.1916 7.03021C22.7859 7.19538 22.5091 7.57652 22.4775 8.01343C22.446 8.45034 22.6652 8.86729 23.0429 9.08902L25.1732 10.3393L25.35 12.8034C25.3814 13.2405 25.6582 13.6218 26.064 13.7871C26.4698 13.9524 26.9342 13.8729 27.262 13.5821L29.1108 11.9421L31.5098 12.5359C31.9352 12.6412 32.3834 12.4959 32.666 12.1611C32.9486 11.8263 33.0166 11.36 32.8415 10.9584L31.8537 8.69402L33.1597 6.59739C33.3913 6.22558 33.3918 5.75453 33.1609 5.38224C32.9301 5.00995 32.5079 4.80095 32.0719 4.84309L29.6107 5.08095L28.0184 3.19053Z" fill="#0FDFC8"/>
<path d="M77.1299 6.50113C77.0954 6.18332 76.8836 5.9126 76.5833 5.80281C76.2831 5.69301 75.9466 5.76317 75.7152 5.98379L74.4101 7.22844L72.6438 6.86034C72.3309 6.79513 72.0081 6.91317 71.8111 7.16486C71.6141 7.41655 71.577 7.75825 71.7154 8.04635L72.4961 9.67087L71.5997 11.2348C71.4407 11.5122 71.453 11.8558 71.6314 12.1211C71.8098 12.3864 72.1233 12.5274 72.4402 12.4848L74.2275 12.2447L75.4381 13.5812C75.6528 13.8182 75.9834 13.9127 76.2908 13.8251C76.5983 13.7374 76.8293 13.4828 76.8868 13.1683L77.2108 11.3951L78.8554 10.6575C79.147 10.5267 79.3391 10.2417 79.351 9.92226C79.3628 9.60285 79.1923 9.30441 78.9112 9.15237L77.3241 8.29413L77.1299 6.50113Z" fill="#0FDFC8"/>
</svg>
